<?xml version="1.0" standalone="no"?> <!DOCTYPE svg PUBLIC "-//W3C//DTD SVG 1.0//EN" "http://www.w3.org/TR/2001/REC-SVG-20010904/DTD/svg10.dtd" > <svg xmlns="http://www.w3.org/2000/svg" width="100%" height="100%">
<defs >
<font id="mako-regular" horiz-adv-x="889" ><font-face
    font-family="Mako"
    units-per-em="2048"
    panose-1="2 0 0 0 0 0 0 0 0 0"
    ascent="2141"
    descent="-538"
    alphabetic="0" />
<missing-glyph horiz-adv-x="345" />
<glyph unicode=" " glyph-name="space" horiz-adv-x="512" />
<glyph unicode="!" glyph-name="exclam" horiz-adv-x="523" d="M348 -14H173V165H348V-14ZM217 355Q212 426 204 540Q197 637 187 790T163 1162Q163 1169 163 1184T161 1228T160 1300T158 1404H362Q361 1343 360 1300T359 1229T358 1185T357 1162Q343 944 333
791T316 540Q308 426 303 355H217Z" />
<glyph unicode="&quot;" glyph-name="quotedbl" horiz-adv-x="606" d="M273 1436Q273 1362 266 1287T249 1148Q238 1075 225 1007H152Q143 1061 137 1128Q131 1185 127 1263T120 1436H273ZM497 1436Q497 1362 488 1287T468 1148Q455 1075 439 1007H369Q364 1027
360 1071T353 1174T349 1300T347 1436H497Z" />
<glyph unicode="#" glyph-name="numbersign" horiz-adv-x="1226" d="M429 430L395 103H245L278 430H88L98 559H290L334 992H139L153 1119H348L382 1462H533L498 1119H809L841 1460H993L960 1119H1139L1124 992H945L901 559H1092L1082 430H888L856 102H703L739
430H429ZM749 559L792 992H486L443 559H749Z" />
<glyph unicode="$" glyph-name="dollar" horiz-adv-x="1014" d="M473 32Q466 32 454 32T436 33Q367 36 311 47T216 72Q170 87 135 104L110 254Q154 234 207 217Q252 203 311 191T438 175Q443 175 453 175T470 174L458 651Q445 655 433 659T409 667Q329 694 270
725T172 797T113 893T93 1022Q93 1096 118 1154T190 1254T300 1320T442 1353L437 1593H544L549 1356Q613 1354 668 1346T764 1328Q812 1317 851 1305L871 1154Q828 1169 777 1181Q733 1192 676 1201T552 1213L563 787Q653 758 722 730T837 661T906 557T930 398Q930
323 911 261T849 152T741 75T580 35L586 -201H478L473 32ZM754 381Q754 429 745 464T715 526T657 573T566 613L577 184Q618 191 651 205T707 244T742 301T754 381ZM257 1016Q257 979 267 952T300 902T360 860T454 822L446 1206Q405 1200 371 1186T311 1148T271
1092T257 1016Z" />
<glyph unicode="%" glyph-name="percent" horiz-adv-x="1394" d="M351 864Q394 864 422 880T466 927T489 1001T496 1099Q496 1154 490 1197T467 1271T422 1318T351 1335Q307 1335 279 1319T235 1272T212 1198T205 1099Q205 1045 211 1002T234 928T279 881T351
864ZM83 1099Q83 1270 152 1354T351 1438Q483 1438 551 1354T619 1099Q619 761 351 761Q219 761 151 844T83 1099ZM205 -12L1083 1490L1196 1423L314 -77L205 -12ZM1187 321Q1187 375 1181 419T1158 493T1113 540T1042 557Q998 557 970 541T925 494T902 419T895
321Q895 267 901 223T924 149T969 102T1042 85Q1085 85 1113 101T1157 148T1180 223T1187 321ZM774 321Q774 492 841 576T1042 660Q1174 660 1242 576T1310 321Q1310 -18 1042 -18Q910 -18 842 66T774 321Z" />
<glyph unicode="&amp;" glyph-name="ampersand" horiz-adv-x="1464" d="M1318 -20L1112 164Q1034 69 909 23T600 -24Q457 -24 360 6T204 89T120 210T94 353Q94 418 115 481T178 599T283 703T422 790Q378 830 336 871T265 958T220 1053T203 1163Q203 1235 226 1287T298
1380T418 1442T590 1464Q689 1464 758 1442T871 1379T935 1290T955 1176Q955 1108 933 1050T871 943T774 852T643 770L1080 371Q1100 419 1112 485T1131 617T1142 757T1149 912L1295 923Q1295 724 1273 565T1193 287L1418 85L1318 -20ZM603 123Q754 123 850 158T1003
259L514 708Q390 640 330 560T269 374Q269 322 283 277T335 198T438 144T603 123ZM367 1149Q367 1110 383 1070T425 993T485 919T551 853Q596 880 641 911T722 977T780 1055T803 1153Q803 1199 792 1233T755 1291T686 1326T580 1338Q522 1338 482 1325T416 1287T379
1228T367 1149Z" />
<glyph unicode="&apos;" glyph-name="quotesingle" horiz-adv-x="389" d="M284 1436Q284 1371 274 1297T250 1157Q235 1081 216 1007H141Q138 1093 135 1173Q134 1207 133 1243T131 1314T130 1380T129 1436H284Z" />
<glyph unicode="(" glyph-name="parenleft" horiz-adv-x="598" d="M107 619Q107 729 122 822T161 992T217 1131T281 1241Q358 1354 456 1423L541 1326Q469 1262 413 1162Q389 1119 366 1065T326 942T297 793T286 617Q286 522 297 441T325 293T366 170T413 73Q469
-26 541 -90L456 -186Q358 -117 281 -4Q248 44 217 106T162 245T122 415T107 619Z" />
<glyph unicode=")" glyph-name="parenright" horiz-adv-x="596" d="M489 619Q489 509 474 416T435 245T379 106T315 -4Q238 -117 141 -186L55 -90Q127 -26 183 73Q207 115 230 170T271 292T300 441T311 617Q311 712 300 793T271 942T230 1064T183 1162Q127 1262
55 1326L141 1423Q238 1354 315 1241Q348 1193 379 1131T434 992T474 822T489 619Z" />
<glyph unicode="*" glyph-name="asterisk" horiz-adv-x="875" d="M309 722L212 777L357 1017L94 1008V1118L359 1110L225 1348L322 1403L438 1163L569 1409L666 1351L516 1109L782 1118V1008L519 1017L655 776L551 719L438 964L309 722Z" />
<glyph unicode="+" glyph-name="plus" horiz-adv-x="848" d="M493 455V153H355V455H91V591H355V895H493V591H757V455H493Z" />
<glyph unicode="," glyph-name="comma" horiz-adv-x="507" d="M138 200L364 216Q366 192 369 164Q371 140 373 109T375 43Q375 -4 365 -43T332 -115T271 -172T174 -213L147 -133Q203 -127 230 -90T258 0H138V200Z" />
<glyph unicode="-" glyph-name="hyphen" horiz-adv-x="805" d="M146 448V578H659V448H146Z" />
<glyph unicode="." glyph-name="period" horiz-adv-x="469" d="M329 202V-9H139V202H329Z" />
<glyph unicode="/" glyph-name="slash" horiz-adv-x="698" d="M621 1451L247 -202L79 -164L448 1490L621 1451Z" />
<glyph unicode="0" glyph-name="zero" horiz-adv-x="1280" d="M639 123Q738 123 800 162T897 273T944 446T957 674Q957 796 944 898T895 1072T797 1186T639 1227Q543 1227 482 1187T385 1074T336 899T323 674Q323 548 336 447T385 274T482 163T639 123ZM133 673Q133
834 158 964T242 1184T398 1321T639 1369Q784 1369 881 1322T1038 1184T1122 964T1147 673Q1147 509 1121 379T1035 160T878 24T639 -24Q497 -24 401 23T245 160T159 379T133 673Z" />
<glyph unicode="1" glyph-name="one" horiz-adv-x="659" d="M296 972L299 1158L204 1106L97 1050L39 1191L338 1336L471 1309V0H295L296 972Z" />
<glyph unicode="2" glyph-name="two" horiz-adv-x="988" d="M488 1363Q586 1363 658 1337T777 1261T848 1145T871 996Q871 934 857 881T817 778T757 681T682 585L304 144H856L836 0H120L90 146L553 700Q577 729 602 763T646 834T678 911T691 993Q691 1040 677
1081T635 1153T562 1200T458 1217Q402 1217 343 1205T232 1179Q173 1160 117 1140L137 1296Q189 1314 247 1329Q297 1342 359 1352T488 1363Z" />
<glyph unicode="3" glyph-name="three" horiz-adv-x="1061" d="M125 189Q138 186 173 177T257 158T364 140T479 132Q537 132 584 146T665 189T716 262T734 367Q734 430 714 479T647 561T523 611T330 628V789Q436 789 507 799T621 835T682 904T700 1011Q700 1070
681 1110T629 1175T550 1210T452 1221Q405 1221 352 1215T251 1199T166 1181T115 1167L140 1320Q156 1325 186 1333T258 1349T348 1363T452 1370Q552 1370 633 1350T771 1288T858 1182T889 1030Q889 976 879 934T851 858T812 802T768 761Q715 724 648 712Q729 706
792 670Q819 652 845 628T891 569T923 485T936 376Q936 258 900 181T802 58T655 -6T476 -24Q414 -24 352 -16T238 4T146 25T91 40L125 189Z" />
<glyph unicode="4" glyph-name="four" horiz-adv-x="1082" d="M570 1335L836 1328L837 397H1004V257H837V-14L662 -19V257H84L38 379L570 1335ZM662 397V839L672 1217L488 853L233 393L424 397H662Z" />
<glyph unicode="5" glyph-name="five" horiz-adv-x="1028" d="M197 667Q196 667 188 675T170 694L143 721L163 1339H839L824 1209H319L301 809Q332 815 367 820Q397 825 435 828T516 832Q602 832 676 809T804 735T889 608T920 425Q920 314 898 230T821 89T678
4T457 -24Q398 -24 346 -16T254 3Q207 15 168 31L149 183Q191 169 240 157Q282 147 336 140T450 132Q535 132 592 147T684 195T733 285T748 424Q748 481 732 529T682 612T599 668T482 689Q396 689 320 682T197 667Z" />
<glyph unicode="6" glyph-name="six" horiz-adv-x="1196" d="M941 1191Q854 1202 782 1203T647 1195Q560 1185 499 1150T398 1054T341 906T321 705Q346 722 383 746T469 791T577 827T706 842Q794 842 868 813T996 730T1080 599T1110 427Q1110 340 1081 259T992
114T838 14T616 -24Q498 -24 407 18T255 140T162 336T130 600Q130 770 156 901T241 1124T396 1270T632 1337Q695 1346 765 1346T918 1338L941 1191ZM669 692Q595 692 533 674T423 636Q368 612 323 582Q323 580 323 573T322 556T322 540T322 529Q321 334 398 227T626
120Q774 120 851 194T929 424Q929 486 914 535T868 619T787 673T669 692Z" />
<glyph unicode="7" glyph-name="seven" horiz-adv-x="917" d="M205 48L528 817L678 1174L370 1171H59L69 1317H826L867 1177L365 -24L205 48Z" />
<glyph unicode="8" glyph-name="eight" horiz-adv-x="1155" d="M123 345Q123 414 138 466T178 558T234 623T297 667T359 695T412 711Q363 723 319 748T242 811T190 899T170 1013Q170 1087 194 1151T268 1263T395 1339T577 1367Q683 1367 761 1339T889 1263T963
1150T988 1013Q988 948 966 898T909 811T827 749T733 711Q775 702 827 680T924 616T1000 509T1031 345Q1031 241 991 171T887 57T741 -5T577 -24Q496 -24 415 -6T269 56T164 170T123 345ZM579 785Q642 802 691 833Q712 846 732 864T768 906T793 958T803 1023Q803
1081 786 1118T738 1179T667 1212T579 1222Q535 1222 494 1213T422 1180T373 1119T354 1023Q354 988 363 958T389 905T425 864T466 832Q515 801 579 785ZM314 364Q314 297 333 252T387 178T470 138T577 126Q634 126 683 137T769 177T825 250T846 364Q846 407 835
443T804 506T761 556T712 594Q653 630 578 646Q504 628 446 592Q421 577 398 555T356 505T326 442T314 364Z" />
<glyph unicode="9" glyph-name="nine" horiz-adv-x="1196" d="M255 142Q342 131 414 130T549 137Q636 147 697 182T798 278T855 426T875 629Q855 611 822 589T744 545T641 510T514 496Q425 496 347 523T211 604T120 734T86 911Q86 999 115 1080T204 1226T358 1327T580
1365Q698 1365 788 1324T940 1201T1034 1003T1066 735Q1066 565 1040 432T955 206T800 59T563 -8Q500 -18 430 -18T278 -10L255 142ZM548 642Q617 642 676 660T779 698Q830 722 873 753Q873 756 873 765T874 783T874 799T874 810Q874 908 855 983T797 1112T702
1192T570 1220Q421 1220 344 1145T267 913Q267 850 283 800T333 716T420 662T548 642Z" />
<glyph unicode=":" glyph-name="colon" horiz-adv-x="501" d="M353 306V94H147V306H353ZM353 805V591H148V805H353Z" />
<glyph unicode=";" glyph-name="semicolon" horiz-adv-x="514" d="M357 805V591H152V805H357ZM152 189L355 195Q358 175 361 150Q363 129 365 102T367 43Q367 -4 358 -43T329 -115T274 -172T188 -213L160 -133Q206 -127 228 -90T250 0H152V189Z" />
<glyph unicode="&lt;" glyph-name="less" horiz-adv-x="989" d="M79 623L808 987L857 823L285 561L857 301L808 138L79 506V623Z" />
<glyph unicode="=" glyph-name="equal" horiz-adv-x="939" d="M159 615H779V487H159V615ZM160 534H779V405H160V534Z" />
<glyph unicode="&gt;" glyph-name="greater" horiz-adv-x="988" d="M909 506L181 138L132 301L702 561L132 823L181 987L909 623V506Z" />
<glyph unicode="?" glyph-name="question" horiz-adv-x="872" d="M804 1093Q804 998 770 933T685 824T574 751T463 699T377 653T343 600V302H192V590Q192 643 211 681T261 748T332 798T414 840T495 882T566 932T617 999T636 1090Q636 1143 623 1180T582 1242T507
1277T393 1288Q340 1288 288 1281T192 1266Q142 1256 96 1244Q96 1246 97 1268T98 1316T100 1364T101 1388Q146 1401 195 1412Q237 1421 289 1429T394 1437Q511 1437 590 1410T716 1335T784 1226T804 1093ZM173 78Q173 101 181 121T202 157T234 182T274 191Q296
191 315 182T348 158T371 122T379 78Q379 56 371 37T349 4T315 -19T274 -28Q253 -28 235 -20T203 3T181 37T173 78Z" />
<glyph unicode="@" glyph-name="at" horiz-adv-x="1603" d="M1035 896Q1032 896 1014 899T969 907T915 914T864 917Q794 914 733 883T624 801T549 688T517 557Q509 425 558 362T709 299Q777 299 828 324T917 399T978 519T1012 681L1035 896ZM1511 685Q1511 577
1490 498T1435 362T1357 271T1268 216T1182 190T1109 183Q1071 183 1050 195T1018 229T1006 281T1007 345Q1008 348 1011 365T1017 401L1025 449L1016 450Q998 375 957 315Q939 290 915 265T858 222T784 192T691 180Q619 180 563 204T466 275T405 387T384 533Q384
598 403 661T457 782T541 888T651 970T782 1017T929 1022Q953 1019 984 1015T1044 1006T1093 998T1114 994L1160 895L1105 287Q1128 287 1157 292T1217 312T1277 355T1328 427T1364 535T1378 688Q1378 818 1339 914T1227 1073T1054 1167T827 1198Q691 1198 584
1147T400 1010T281 811T232 572Q225 444 260 340T370 161T557 45T817 3Q930 3 1010 24T1141 73Q1201 103 1240 141Q1246 136 1255 125T1274 102T1294 79T1309 62Q1269 12 1199 -26Q1169 -42 1131 -58T1044 -87T936 -107T807 -115Q646 -115 512 -68T283 68T138 283T94
572Q100 731 158 868T314 1104T542 1260T821 1317Q968 1317 1094 1276T1313 1156T1458 958T1511 685Z" />
<glyph unicode="A" glyph-name="A" horiz-adv-x="1234" d="M335 327L236 0H41L517 1437H718L1193 0H997L899 327H335ZM368 439H865L618 1243L368 439Z" />
<glyph unicode="B" glyph-name="B" horiz-adv-x="1255" d="M366 825H599Q685 825 744 841T839 888T891 963T907 1068Q907 1138 888 1179T826 1245T716 1281T555 1292H366V825ZM977 417Q977 501 955 554T887 640T771 685T605 698H366V144H608Q699 144 768 155T884
194T953 276T977 417ZM1155 415Q1155 200 1031 100T656 0H185V1437H580Q719 1437 816 1416T973 1350T1060 1235T1087 1060Q1087 1008 1074 967T1038 894T988 840T932 802T877 781T831 772Q922 765 993 725Q1023 708 1052 682T1104 620T1141 533T1155 415Z" />
<glyph unicode="C" glyph-name="C" horiz-adv-x="1193" d="M692 -24Q571 -24 467 10T286 132T165 365T119 727Q119 935 163 1076T287 1303T475 1427T712 1464Q793 1464 862 1455T983 1434Q1043 1421 1091 1405L1107 1250Q1057 1268 997 1283Q946 1294 878 1304T733
1314Q636 1314 559 1284T428 1186T346 1008T317 729Q318 570 342 454T416 265T540 159T714 127Q797 126 868 136T993 163Q1055 179 1107 199L1090 43Q1041 24 979 9Q926 -4 853 -14T692 -24Z" />
<glyph unicode="D" glyph-name="D" horiz-adv-x="1381" d="M579 144Q725 144 820 174T972 272T1050 453T1073 740Q1073 881 1054 983T986 1153T855 1257T649 1292H377V144H579ZM185 0V1437H597Q681 1437 762 1429T918 1394T1054 1321T1163 1199T1235 1014T1261
748Q1261 578 1235 441T1139 205T950 53T642 0H185Z" />
<glyph unicode="E" glyph-name="E" horiz-adv-x="1090" d="M185 0V1437H1001L977 1292H374V809H866V670H374V145H999L976 0H185Z" />
<glyph unicode="F" glyph-name="F" horiz-adv-x="1087" d="M370 0H185V1437H1019L995 1292H370V820H925V672H370V0Z" />
<glyph unicode="G" glyph-name="G" horiz-adv-x="1335" d="M1103 4L1065 145Q1032 98 980 61Q936 27 865 2T694 -24Q572 -24 466 17T282 148T160 379T115 721Q115 864 139 976T206 1170T308 1309T437 1400T585 1449T746 1464Q824 1464 892 1453T1012 1428Q1072
1412 1123 1393L1137 1240Q1087 1260 1026 1277Q974 1292 904 1303T751 1314Q642 1314 560 1280T423 1177T341 1002T313 749Q313 594 335 477T405 281T529 165T712 127Q793 127 855 147T961 190Q1011 217 1048 253V609L903 605H777L758 743H1207V4H1103Z" />
<glyph unicode="H" glyph-name="H" horiz-adv-x="1439" d="M1069 677H370V0H185V1437H370V817H1069V1437H1254V0H1069V677Z" />
<glyph unicode="I" glyph-name="I" horiz-adv-x="553" d="M185 0V1437H368V0H185Z" />
<glyph unicode="J" glyph-name="J" horiz-adv-x="693" d="M59 -14L35 53Q104 53 153 59T235 80T287 120T317 183T330 275T333 399V1437H520L516 308Q516 226 499 155T434 32T302 -50T83 -81L59 -14Z" />
<glyph unicode="K" glyph-name="K" horiz-adv-x="1293" d="M1221 1384L641 780L1273 47V0H1081L512 672L370 530V0H185V1437H370V740L1036 1437H1221V1384Z" />
<glyph unicode="L" glyph-name="L" horiz-adv-x="1001" d="M185 0V1437H370V142H958L941 0H185Z" />
<glyph unicode="M" glyph-name="M" horiz-adv-x="1755" d="M221 1437H495L816 380L884 149L946 380L1268 1437H1542L1595 0H1412L1381 988L1380 1276L1295 941L1000 32H763L468 941L384 1276L381 987L341 0H157L221 1437Z" />
<glyph unicode="N" glyph-name="N" horiz-adv-x="1487" d="M361 1148V0H185V1437H375L1126 289V1437H1302V0L1120 1L361 1148Z" />
<glyph unicode="O" glyph-name="O" horiz-adv-x="1399" d="M311 722Q311 581 332 471T401 284T521 167T698 127Q803 127 876 167T997 283T1065 470T1087 722Q1087 862 1066 972T997 1158T877 1274T698 1314Q595 1314 522 1274T402 1158T333 972T311 722ZM120 722Q120
1098 268 1281T698 1464Q982 1464 1130 1281T1279 722Q1279 342 1131 159T698 -24Q557 -24 449 21T268 159T158 392T120 722Z" />
<glyph unicode="P" glyph-name="P" horiz-adv-x="1225" d="M544 717Q665 717 744 732T870 782T935 868T954 1000Q954 1094 936 1150T870 1238T737 1281T517 1293H370V717H544ZM1147 998Q1147 876 1111 796T1000 665T807 593T528 571H433Q403 571 370 572V0H185V1437H494Q688
1437 814 1416T1014 1343T1117 1209T1147 998Z" />
<glyph unicode="Q" glyph-name="Q" horiz-adv-x="1399" d="M122 722Q122 917 162 1058T277 1290T458 1422T698 1464Q833 1464 940 1423T1122 1291T1237 1059T1277 722Q1277 545 1243 414T1147 192T998 52T803 -14Q829 -35 865 -64T947 -128T1044 -196T1153 -265Q1153
-266 1146 -276T1129 -300T1107 -331T1085 -363T1068 -389T1061 -400Q986 -359 918 -311T791 -212T684 -113T602 -20Q489 -6 400 45T249 188T155 413T122 722ZM313 722Q313 582 334 471T403 283T523 167T700 127Q803 127 876 166T996 282T1064 470T1086 722Q1086
861 1064 972T996 1158T876 1273T700 1314Q597 1314 524 1274T404 1158T335 972T313 722Z" />
<glyph unicode="R" glyph-name="R" horiz-adv-x="1234" d="M1164 0H983L573 600H373V0H185V1437H615Q734 1437 827 1421T985 1359T1084 1234T1118 1028Q1118 912 1087 837T1005 717T890 649T760 618L1164 57V0ZM373 740H597Q697 740 763 753T870 799T928 882T945
1011Q945 1104 927 1160T866 1246T749 1288T565 1299H373V740Z" />
<glyph unicode="S" glyph-name="S" horiz-adv-x="1125" d="M103 1091Q103 1182 137 1251T234 1368T381 1440T568 1464Q646 1464 714 1455T833 1435Q893 1423 943 1408L964 1249Q913 1267 852 1282Q799 1294 730 1303T579 1314Q513 1314 458 1301T362 1258T299
1185T276 1084Q276 1034 290 1001T341 939T439 886T593 833Q704 796 786 765T922 688T1004 570T1031 389Q1031 295 1004 218T918 87T766 5T540 -24Q448 -24 377 -12T254 15Q195 33 150 55L124 213Q177 188 240 170Q294 151 366 139T522 127Q597 127 656 138T758
177T822 253T845 370Q845 439 830 483T776 561T670 623T497 684Q392 715 318 750T195 832T125 943T103 1091Z" />
<glyph unicode="T" glyph-name="T" horiz-adv-x="1101" d="M648 1293V0H461V1293H49V1437H1063L1039 1293H648Z" />
<glyph unicode="U" glyph-name="U" horiz-adv-x="1436" d="M720 127Q808 127 874 146T984 208T1050 326T1073 513V1437H1263V500Q1263 345 1223 244T1110 84T938 0T721 -24Q600 -24 499 0T326 85T213 247T173 501V1437H364V513Q364 401 384 326T448 208T559 146T720 127Z" />
<glyph unicode="V" glyph-name="V" horiz-adv-x="1189" d="M459 0L45 1437H256L520 421L598 94L672 421L929 1437H1143L731 0H459Z" />
<glyph unicode="W" glyph-name="W" horiz-adv-x="1858" d="M1218 0L994 943L929 1262L866 942L642 0H366L79 1437H272L476 325L512 124L550 322L794 1376H1066L1311 321L1350 124L1386 325L1588 1437H1777L1494 0H1218Z" />
<glyph unicode="X" glyph-name="X" horiz-adv-x="1120" d="M494 484L269 0H61L419 728L64 1437H272L494 953L560 809L626 953L848 1437H1057L697 728L1059 0H851L626 485L560 626L494 484Z" />
<glyph unicode="Y" glyph-name="Y" horiz-adv-x="1133" d="M899 1437H1107L667 450V0H465V449L27 1437H237L467 871L565 609H572L666 871L899 1437Z" />
<glyph unicode="Z" glyph-name="Z" horiz-adv-x="1104" d="M92 156L619 972L840 1292L638 1287H88L112 1437H1004L1020 1273L392 291L281 141L484 147H1006L983 0H107L92 156Z" />
<glyph unicode="[" glyph-name="bracketleft" horiz-adv-x="646" d="M172 -218V1437H578V1319H341L347 966V337L341 -102H578V-218H172Z" />
<glyph unicode="\" glyph-name="backslash" horiz-adv-x="698" d="M238 1533L620 -179L461 -220L78 1492L238 1533V1533Z" />
<glyph unicode="]" glyph-name="bracketright" horiz-adv-x="646" d="M69 -218V-102H306L300 337V966L306 1319H69V1437H475V-218H69Z" />
<glyph unicode="^" glyph-name="asciicircum" d="M836 279H662Q656 293 640 339T601 447T553 579T505 711T466 819T444 880Q440 869 429 840T404 770T372 679T336 579T300 479T268 389T243 319T228 279H52Q56 287 70 321T107 406T155 519T209 646T263 773T312
886T348 971T367 1013H522L836 279Z" />
<glyph unicode="_" glyph-name="underscore" horiz-adv-x="1156" d="M121 -1V149H1035V-1H121Z" />
<glyph unicode="`" glyph-name="grave" horiz-adv-x="378" d="M302 1184H229L9 1713L222 1735L302 1184Z" />
<glyph unicode="a" glyph-name="a" horiz-adv-x="1080" d="M570 453Q541 453 506 452T435 444T366 426T308 394T267 343T251 268Q251 191 300 154T441 117Q504 117 555 130T644 160Q687 179 722 204V447Q699 449 673 450Q651 451 624 451T570 453ZM906 206Q906
170 910 151T928 126Q942 120 966 121T1012 122L999 0Q985 -5 967 -9Q952 -13 932 -15T887 -18Q846 -18 818 -4T771 31T745 78T736 117Q709 79 661 49Q620 23 554 3T387 -18Q319 -18 263 1T166 59T104 153T82 275Q82 365 121 422T224 511T370 555T540 568Q575 568
608 566T667 561Q697 556 722 553V666Q722 745 710 794T671 869T599 903T491 912Q429 912 371 903T266 882Q211 869 163 851L183 990Q221 1007 270 1021Q312 1033 371 1043T505 1053Q626 1053 704 1030T827 954T889 817T906 611V206Z" />
<glyph unicode="b" glyph-name="b" horiz-adv-x="1134" d="M156 0V1418L341 1437V956Q377 980 423 999Q462 1016 515 1029T635 1043Q714 1043 785 1013T909 917T994 750T1026 507Q1026 361 990 261T896 98T764 9T614 -18Q542 -18 487 0T394 41Q350 67 318 101L292
-9L156 0ZM341 217Q371 190 409 169Q441 151 486 137T586 122Q638 122 684 142T765 208T820 326T841 503Q841 692 781 796T599 901Q544 901 498 889T416 861Q376 843 341 822V217Z" />
<glyph unicode="c" glyph-name="c" horiz-adv-x="935" d="M106 506Q106 608 123 688T171 829T243 929T333 995T435 1032T543 1043Q609 1043 663 1035T756 1015Q802 1003 838 987L853 852Q814 866 768 877Q729 886 678 894T570 902Q503 902 452 880T366 811T313
688T295 509Q295 410 313 335T365 213T451 144T570 122Q627 122 678 129T769 146Q815 157 854 170L838 37Q802 21 757 9Q719 -2 666 -10T548 -18Q465 -18 386 7T245 94T144 258T106 506Z" />
<glyph unicode="d" glyph-name="d" horiz-adv-x="1137" d="M514 -18Q440 -18 367 9T237 98T144 260T108 507Q108 648 139 750T223 917T348 1012T501 1043Q565 1043 619 1031T713 1004Q760 987 798 966V1418L981 1437V0L838 -8L806 102Q776 68 734 42Q698 19 644
1T514 -18ZM543 122Q599 122 645 137T726 170Q766 191 798 219V833Q761 852 719 867Q682 880 634 890T530 901Q410 901 351 797T292 503Q292 399 312 327T366 209T446 143T543 122Z" />
<glyph unicode="e" glyph-name="e" horiz-adv-x="1030" d="M556 906Q509 906 466 892T387 843T329 754T299 608H772Q772 624 773 633Q774 641 774 649T774 664Q772 728 755 773T709 848T641 892T556 906ZM872 30Q836 17 792 6Q754 -3 703 -10T591 -18Q349 -18
227 112T105 501Q105 646 139 746T233 913T375 1011T552 1043Q646 1043 717 1013T835 934T906 820T933 687Q933 666 932 635T928 577T923 528T917 496H296V460Q296 368 318 301T380 195T478 139T604 122Q661 122 712 128T804 143Q851 152 891 164L872 30Z" />
<glyph unicode="f" glyph-name="f" horiz-adv-x="721" d="M229 0V927H53V1031H230V1034Q232 1140 249 1216T300 1342T388 1414T516 1437Q561 1437 597 1431T660 1417Q690 1408 713 1398L727 1278Q703 1285 677 1291Q654 1296 626 1300T569 1304Q524 1304 494 1295T446
1260T420 1190T412 1075V1031H685V927H412V0H229Z" />
<glyph unicode="g" glyph-name="g" horiz-adv-x="1132" d="M286 -283Q320 -295 360 -304Q394 -312 438 -318T534 -325Q609 -325 657 -310T735 -255T775 -147T788 39V72Q756 52 714 36Q678 22 626 11T507 0Q430 0 359 28T232 118T143 277T109 509Q109 649 136 750T214
916T340 1012T508 1043Q573 1043 624 1030T715 999T780 963T821 932L854 1031H974V67Q974 -79 954 -179T884 -342T753 -433T549 -461Q489 -461 444 -454T367 -439Q331 -429 306 -417L286 -283ZM530 140H542Q600 141 645 150T723 171Q760 184 788 200V822Q755 843
715 861Q681 876 636 888T536 901Q468 901 422 873T348 795T307 675T294 520Q294 434 308 363T351 243T424 167T530 140Z" />
<glyph unicode="h" glyph-name="h" horiz-adv-x="1161" d="M158 1419L343 1437V925Q384 957 424 979T506 1016T592 1036T688 1043Q775 1043 836 1018T937 936T993 791T1011 576V0H826V562Q826 664 814 730T779 834T721 887T641 902Q595 902 549 888T464 855T393
819T343 795V0H158V1419Z" />
<glyph unicode="i" glyph-name="i" horiz-adv-x="500" d="M158 0V1031H342V0H158ZM346 1408V1226H153V1408H346Z" />
<glyph unicode="j" glyph-name="j" horiz-adv-x="500" d="M343 1031V133Q343 52 326 -15T268 -139T163 -242T3 -326L-52 -203Q7 -170 47 -138T113 -65T149 28T160 152V1031H343ZM347 1408V1226H155V1408H347Z" />
<glyph unicode="k" glyph-name="k" horiz-adv-x="1053" d="M1027 0H841L439 457L343 373V0H158V1419L343 1437V560L808 1031H999V997L559 550L1027 35V0Z" />
<glyph unicode="l" glyph-name="l" horiz-adv-x="500" d="M158 1419L342 1437V0H158V1419Z" />
<glyph unicode="m" glyph-name="m" horiz-adv-x="1692" d="M1266 1043Q1408 1043 1475 944T1542 642V0H1356V562Q1356 654 1349 718T1326 823T1281 882T1211 901Q1176 901 1133 891T1050 867T979 837T935 808Q938 787 942 754Q945 725 947 681T950 573V0H764V597Q764
688 758 747T736 840T696 888T632 901Q588 901 546 892T467 868T398 838T343 808V0H158V1031L287 1043L314 922Q394 981 481 1012T669 1043Q769 1043 826 1011T907 919Q938 945 974 968T1055 1007T1151 1033T1266 1043Z" />
<glyph unicode="n" glyph-name="n" horiz-adv-x="1156" d="M158 1031L287 1043L314 922Q338 940 373 961T454 1001T555 1031T674 1043Q753 1043 814 1021T919 949T984 819T1007 624V0H822V584Q822 666 813 726T783 825T727 882T638 901Q582 901 530 886T435 854Q387
834 343 808V0H158V1031Z" />
<glyph unicode="o" glyph-name="o" horiz-adv-x="1119" d="M560 1043Q675 1043 760 1005T902 898T985 730T1013 510Q1013 394 986 296T902 129T761 21T560 -18Q444 -18 359 20T217 128T134 296T106 510Q106 632 133 730T217 897T358 1005T560 1043ZM560 122Q635
122 686 150T768 230T813 354T827 512Q827 606 813 678T768 799T685 875T560 901Q485 901 434 875T352 800T307 678T293 512Q293 427 306 355T351 230T434 150T560 122Z" />
<glyph unicode="p" glyph-name="p" horiz-adv-x="1141" d="M278 1043L311 927Q344 951 380 972T460 1009T553 1034T666 1043Q752 1043 819 1012T934 916T1005 751T1030 514Q1030 374 1001 273T922 107T803 12T655 -18Q586 -18 529 -5T430 26Q382 45 343 71V-399L158
-415V1032L278 1043ZM343 198Q378 177 419 160Q454 146 502 134T606 122Q665 122 709 143T784 213T829 339T844 524Q844 722 791 811T631 901Q571 901 519 888T428 858Q382 840 343 816V198Z" />
<glyph unicode="q" glyph-name="q" horiz-adv-x="1111" d="M956 -390L771 -417V71Q732 45 684 26Q643 9 589 -4T470 -18Q389 -18 323 17T209 120T136 286T110 509Q110 641 136 740T213 907T335 1009T501 1043Q548 1043 600 1039T703 1028T800 1011T880 993T935
979L956 974V-390ZM543 901Q487 901 441 883T363 821T312 702T294 512Q294 316 352 219T531 122Q576 122 618 133T695 159Q735 175 771 196V875Q731 883 691 889Q656 894 617 897T543 901Z" />
<glyph unicode="r" glyph-name="r" horiz-adv-x="736" d="M598 1043Q618 1043 637 1040T671 1032Q689 1027 704 1021L682 878Q678 881 668 885Q660 887 645 889T606 892Q549 892 501 877T418 845Q377 825 343 799V0H158V1033L287 1043L322 917Q380 977 451 1010T598
1043Z" />
<glyph unicode="s" glyph-name="s" horiz-adv-x="925" d="M102 777Q103 850 130 900T205 982T320 1029T470 1043Q533 1042 584 1036T674 1021Q718 1011 753 999L773 858Q737 869 694 878Q657 886 607 892T496 900Q443 900 402 895T332 877T288 839T273 774Q273
737 283 715T320 674T396 639T519 604Q606 581 667 555T766 491T822 401T839 282Q838 215 816 160T747 66T629 4T460 -18Q378 -18 318 -9T215 11Q167 23 132 40L113 182Q155 166 207 154Q252 143 312 134T445 124Q556 123 610 158T665 278Q665 310 656 339T620
389T542 429T410 467Q337 485 279 509T181 568T121 653T102 777Z" />
<glyph unicode="t" glyph-name="t" horiz-adv-x="679" d="M444 -18Q376 -18 329 -1T253 57T211 166T197 337V927H55V1031H204L230 1345L379 1374V1031H635V927H382V298Q382 244 385 209T400 152T433 123T492 114Q519 114 544 116T589 123Q612 127 631 132L615
3Q597 -4 571 -8Q549 -12 518 -15T444 -18Z" />
<glyph unicode="u" glyph-name="u" horiz-adv-x="1155" d="M998 0L864 -11L839 118Q800 80 746 50Q700 24 635 3T484 -18Q310 -18 230 92T149 438V1031H333V445Q333 358 342 297T374 197T434 140T527 122Q590 122 642 136T733 169Q778 190 813 217V1031H998V0Z" />
<glyph unicode="v" glyph-name="v" horiz-adv-x="965" d="M373 0L45 1031H239L482 161L732 1031H921L594 0H373Z" />
<glyph unicode="w" glyph-name="w" horiz-adv-x="1485" d="M567 0H321L64 1031H264L451 93L618 1011H853L1051 93L1213 1031H1414L1175 0H931L735 877L567 0Z" />
<glyph unicode="x" glyph-name="x" horiz-adv-x="997" d="M395 513L53 1031H247L499 617L749 1031H945L601 513L945 0H738L499 402L258 0H53L395 513Z" />
<glyph unicode="y" glyph-name="y" horiz-adv-x="979" d="M491 136L738 1031H934L581 -60Q552 -149 528 -218T474 -334T406 -405T311 -429Q249 -429 198 -417T110 -390Q67 -373 32 -351L45 -225Q85 -241 125 -252Q160 -262 200 -270T279 -278Q301 -278 316 -270T341
-246T359 -207T375 -154L399 -47L43 1031H242L491 136Z" />
<glyph unicode="z" glyph-name="z" horiz-adv-x="886" d="M810 888L272 134L460 138H769V0H83V153L621 898L377 893H121V1031H778L810 888Z" />
<glyph unicode="{" glyph-name="braceleft" horiz-adv-x="608" d="M74 657L199 752Q199 891 206 993T228 1169T269 1289T330 1363T415 1400T526 1412V1322Q489 1322 464 1313T422 1280T396 1212T383 1101T378 936T377 708L211 605L377 497Q377 366 377 270T382
105T396 -6T421 -73T463 -107T526 -116V-206Q464 -205 416 -195T331 -157T269 -83T229 37T206 212T199 454L74 550V657Z" />
<glyph unicode="|" glyph-name="bar" horiz-adv-x="533" d="M173 -131V1473H361V-131H173Z" />
<glyph unicode="}" glyph-name="braceright" horiz-adv-x="608" d="M535 550L409 454Q409 315 402 213T380 37T339 -83T278 -157T193 -194T82 -206V-116Q119 -116 144 -107T186 -74T211 -6T224 105T229 269T230 497L397 605L230 708Q230 839 230 936T225 1101T212
1212T187 1279T145 1313T82 1322V1412Q144 1411 192 1401T277 1363T339 1289T379 1169T402 994T409 752L535 657V550Z" />
<glyph unicode="~" glyph-name="asciitilde" horiz-adv-x="893" d="M562 617Q588 611 603 622Q618 633 623 656T629 705H760Q761 646 748 606T713 541T664 504T609 491Q599 490 589 490T568 493Q534 497 500 513T433 547T372 579T321 595Q306 595 296 587T279
566T271 535T268 498H136Q135 563 150 606T189 675T246 711T311 721Q348 719 383 704T450 671T510 637T562 617Z" />
</font>
</defs>
</svg>
